<svg width="22" height="22" viewBox="0 0 22 22" fill="none" xmlns="http://www.w3.org/2000/svg">
<g clip-path="url(#clip0)">
<rect width="23" height="23" fill="#0A22F5"/>
<path d="M11 11L18.5 3.5" stroke="white" stroke-width="2" stroke-linecap="round" stroke-linejoin="round"/>
<path d="M16.3033 5.69676C14.9748 4.37083 13.1969 3.59185 11.3216 3.51391C9.44618 3.43598 7.60986 4.06477 6.17588 5.2759C4.7419 6.48703 3.81472 8.19226 3.57778 10.0542C3.34084 11.9162 3.81139 13.7993 4.89635 15.331C5.9813 16.8627 7.60162 17.9313 9.43675 18.3255C11.2719 18.7198 13.1881 18.4109 14.8064 17.4599C16.4247 16.509 17.6271 14.9853 18.1758 13.1903C18.7245 11.3953 18.5795 9.45971 17.7694 7.76651" stroke="white" stroke-width="2" stroke-linecap="round" stroke-linejoin="round"/>
<path d="M13.6516 8.3484C13.0316 7.72846 12.214 7.34535 11.3409 7.26566C10.4678 7.18598 9.5943 7.41475 8.87235 7.91222C8.15039 8.40969 7.62557 9.14441 7.3891 9.98868C7.15264 10.8329 7.21947 11.7334 7.578 12.5335C7.93652 13.3336 8.56406 13.9828 9.35155 14.3682C10.139 14.7536 11.0367 14.8509 11.8885 14.6432C12.7403 14.4355 13.4924 13.9359 14.014 13.2312C14.5357 12.5265 14.7939 11.6613 14.7439 10.786" stroke="white" stroke-width="2" stroke-linecap="round" stroke-linejoin="round"/>
</g>
<defs>
<clipPath id="clip0">
<rect width="22" height="22" rx="3" fill="white"/>
</clipPath>
</defs>
</svg>
