<svg width="66" height="15" viewBox="0 0 66 15" fill="none" xmlns="http://www.w3.org/2000/svg">
<path d="M0.974 10.846C0.871333 10.9487 0.745333 11 0.596 11C0.446667 11 0.316 10.9487 0.204 10.846C0.101333 10.7433 0.05 10.6173 0.05 10.468V4.238C0.05 4.098 0.101333 3.97667 0.204 3.874C0.306667 3.77133 0.428 3.72 0.568 3.72C0.708 3.72 0.829333 3.77133 0.932 3.874C1.03467 3.97667 1.086 4.098 1.086 4.238L1.1 4.7C1.1 4.70933 1.10467 4.714 1.114 4.714C1.13267 4.714 1.142 4.70467 1.142 4.686C1.674 3.94867 2.30867 3.58 3.046 3.58C3.494 3.58 3.85333 3.678 4.124 3.874C4.404 4.07 4.63267 4.39667 4.81 4.854C4.81 4.87267 4.81467 4.882 4.824 4.882C4.84267 4.882 4.852 4.87267 4.852 4.854C5.37467 4.00467 6.056 3.58 6.896 3.58C7.64267 3.58 8.17933 3.79467 8.506 4.224C8.842 4.65333 9.01 5.372 9.01 6.38V10.468C9.01 10.6173 8.95867 10.7433 8.856 10.846C8.76267 10.9487 8.64133 11 8.492 11C8.34267 11 8.21667 10.9487 8.114 10.846C8.01133 10.7433 7.96 10.6173 7.96 10.468V6.66C7.96 5.792 7.85733 5.204 7.652 4.896C7.456 4.57867 7.106 4.42 6.602 4.42C6.25667 4.42 5.916 4.60667 5.58 4.98C5.244 5.344 5.076 5.722 5.076 6.114V10.468C5.076 10.6173 5.02467 10.7433 4.922 10.846C4.81933 10.9487 4.69333 11 4.544 11C4.39467 11 4.26867 10.9487 4.166 10.846C4.06333 10.7433 4.012 10.6173 4.012 10.468V6.66C4.012 5.792 3.90933 5.204 3.704 4.896C3.508 4.57867 3.16267 4.42 2.668 4.42C2.32267 4.42 1.97733 4.60667 1.632 4.98C1.296 5.344 1.128 5.722 1.128 6.114V10.468C1.128 10.6173 1.07667 10.7433 0.974 10.846ZM13.7722 4.392C12.4749 4.392 11.7655 5.162 11.6442 6.702C11.6442 6.77667 11.6862 6.814 11.7702 6.814H15.5362C15.6109 6.814 15.6482 6.77667 15.6482 6.702C15.5922 5.162 14.9669 4.392 13.7722 4.392ZM14.0662 11.14C12.9182 11.14 12.0455 10.8273 11.4482 10.202C10.8509 9.56733 10.5522 8.62 10.5522 7.36C10.5522 6.06267 10.8369 5.11067 11.4062 4.504C11.9849 3.888 12.7735 3.58 13.7722 3.58C15.6109 3.58 16.5862 4.66733 16.6982 6.842C16.7075 7.066 16.6282 7.25733 16.4602 7.416C16.3015 7.56533 16.1102 7.64 15.8862 7.64H11.7422C11.6675 7.64 11.6302 7.682 11.6302 7.766C11.7142 9.474 12.5589 10.328 14.1642 10.328C14.6962 10.328 15.2422 10.23 15.8022 10.034C15.9049 9.99667 16.0029 10.0107 16.0962 10.076C16.1895 10.132 16.2362 10.216 16.2362 10.328C16.2362 10.6453 16.0915 10.8413 15.8022 10.916C15.2049 11.0653 14.6262 11.14 14.0662 11.14ZM21.2647 4.42C19.8647 4.42 19.1647 5.4 19.1647 7.36C19.1647 8.33067 19.3467 9.06333 19.7107 9.558C20.084 10.0527 20.602 10.3 21.2647 10.3C21.806 10.3 22.2914 10.1133 22.7207 9.74C23.15 9.35733 23.3647 8.92333 23.3647 8.438V6.282C23.3647 5.806 23.15 5.37667 22.7207 4.994C22.3007 4.61133 21.8154 4.42 21.2647 4.42ZM21.0407 11.14C20.1727 11.14 19.4634 10.804 18.9127 10.132C18.3714 9.45067 18.1007 8.52667 18.1007 7.36C18.1007 6.156 18.362 5.22733 18.8847 4.574C19.4167 3.91133 20.1354 3.58 21.0407 3.58C21.9554 3.58 22.716 3.93933 23.3227 4.658C23.332 4.66733 23.3414 4.672 23.3507 4.672C23.36 4.672 23.3647 4.66733 23.3647 4.658V1.032C23.3647 0.882666 23.416 0.756666 23.5187 0.654C23.6307 0.551333 23.7614 0.499999 23.9107 0.499999C24.06 0.499999 24.186 0.551333 24.2887 0.654C24.3914 0.756666 24.4427 0.882666 24.4427 1.032V10.496C24.4427 10.636 24.3914 10.7573 24.2887 10.86C24.1954 10.9533 24.0787 11 23.9387 11C23.7987 11 23.6774 10.9533 23.5747 10.86C23.472 10.7573 23.4207 10.636 23.4207 10.496V9.978C23.4207 9.96867 23.416 9.964 23.4067 9.964C23.3974 9.964 23.388 9.96867 23.3787 9.978C22.7534 10.7527 21.974 11.14 21.0407 11.14ZM28.1265 10.832C28.0238 10.944 27.8931 11 27.7345 11C27.5758 11 27.4405 10.944 27.3285 10.832C27.2258 10.72 27.1745 10.5893 27.1745 10.44V4.28C27.1745 4.13067 27.2258 4 27.3285 3.888C27.4405 3.776 27.5758 3.72 27.7345 3.72C27.8931 3.72 28.0238 3.776 28.1265 3.888C28.2385 4 28.2945 4.13067 28.2945 4.28V10.44C28.2945 10.5893 28.2385 10.72 28.1265 10.832ZM28.1265 1.844C28.0238 1.94667 27.8931 1.998 27.7345 1.998C27.5758 1.998 27.4405 1.94667 27.3285 1.844C27.2258 1.732 27.1745 1.59667 27.1745 1.438V1.06C27.1745 0.910666 27.2258 0.78 27.3285 0.668C27.4405 0.555999 27.5758 0.499999 27.7345 0.499999C27.8931 0.499999 28.0238 0.555999 28.1265 0.668C28.2385 0.78 28.2945 0.910666 28.2945 1.06V1.438C28.2945 1.59667 28.2385 1.732 28.1265 1.844ZM33.8884 11.14C32.7871 11.14 31.9378 10.8227 31.3404 10.188C30.7524 9.544 30.4584 8.60133 30.4584 7.36C30.4584 6.128 30.7431 5.19 31.3124 4.546C31.8911 3.902 32.7031 3.58 33.7484 3.58C34.2338 3.58 34.7471 3.63133 35.2884 3.734C35.4191 3.762 35.5264 3.832 35.6104 3.944C35.7038 4.04667 35.7504 4.168 35.7504 4.308C35.7504 4.42 35.6991 4.50867 35.5964 4.574C35.5031 4.63933 35.4004 4.658 35.2884 4.63C34.8124 4.50867 34.3224 4.448 33.8184 4.448C32.3251 4.448 31.5784 5.41867 31.5784 7.36C31.5784 8.368 31.7744 9.10533 32.1664 9.572C32.5584 10.0387 33.1558 10.272 33.9584 10.272C34.4811 10.272 34.9571 10.202 35.3864 10.062C35.4891 10.0247 35.5871 10.0387 35.6804 10.104C35.7738 10.1693 35.8204 10.258 35.8204 10.37C35.8204 10.51 35.7784 10.636 35.6944 10.748C35.6104 10.86 35.4984 10.9347 35.3584 10.972C34.9198 11.084 34.4298 11.14 33.8884 11.14ZM42.9347 7.36C42.9347 5.4 42.1881 4.42 40.6947 4.42C39.2014 4.42 38.4547 5.4 38.4547 7.36C38.4547 9.32 39.2014 10.3 40.6947 10.3C42.1881 10.3 42.9347 9.32 42.9347 7.36ZM43.1447 10.146C42.5567 10.8087 41.7401 11.14 40.6947 11.14C39.6494 11.14 38.8327 10.8087 38.2447 10.146C37.6567 9.48333 37.3627 8.55467 37.3627 7.36C37.3627 6.16533 37.6567 5.23667 38.2447 4.574C38.8327 3.91133 39.6494 3.58 40.6947 3.58C41.7401 3.58 42.5567 3.91133 43.1447 4.574C43.7327 5.23667 44.0267 6.16533 44.0267 7.36C44.0267 8.55467 43.7327 9.48333 43.1447 10.146Z" fill="black"/>
<path d="M48.362 4.392C47.0647 4.392 46.3554 5.162 46.234 6.702C46.234 6.77667 46.276 6.814 46.36 6.814H50.126C50.2007 6.814 50.238 6.77667 50.238 6.702C50.182 5.162 49.5567 4.392 48.362 4.392ZM48.656 11.14C47.508 11.14 46.6354 10.8273 46.038 10.202C45.4407 9.56733 45.142 8.62 45.142 7.36C45.142 6.06267 45.4267 5.11067 45.996 4.504C46.5747 3.888 47.3634 3.58 48.362 3.58C50.2007 3.58 51.176 4.66733 51.288 6.842C51.2974 7.066 51.218 7.25733 51.05 7.416C50.8914 7.56533 50.7 7.64 50.476 7.64H46.332C46.2574 7.64 46.22 7.682 46.22 7.766C46.304 9.474 47.1487 10.328 48.754 10.328C49.286 10.328 49.832 10.23 50.392 10.034C50.4947 9.99667 50.5927 10.0107 50.686 10.076C50.7794 10.132 50.826 10.216 50.826 10.328C50.826 10.6453 50.6814 10.8413 50.392 10.916C49.7947 11.0653 49.216 11.14 48.656 11.14ZM54.5924 10.832L52.1424 4.252C52.0957 4.12133 52.1097 4 52.1844 3.888C52.2684 3.776 52.3804 3.72 52.5204 3.72C52.6884 3.72 52.8377 3.77133 52.9684 3.874C53.1084 3.96733 53.2064 4.09333 53.2624 4.252L55.1804 9.698C55.1804 9.70733 55.185 9.712 55.1944 9.712C55.213 9.712 55.2224 9.70733 55.2224 9.698L57.3364 4.224C57.3924 4.07467 57.4857 3.95333 57.6164 3.86C57.7564 3.76667 57.9104 3.72 58.0784 3.72C58.209 3.72 58.307 3.776 58.3724 3.888C58.447 3.99067 58.461 4.10267 58.4144 4.224L54.5644 13.576C54.499 13.7253 54.3964 13.8467 54.2564 13.94C54.1257 14.0333 53.9764 14.08 53.8084 14.08C53.6777 14.08 53.5797 14.024 53.5144 13.912C53.449 13.8093 53.4397 13.6973 53.4864 13.576L54.5924 11.056C54.6204 10.9813 54.6204 10.9067 54.5924 10.832ZM62.3073 4.392C61.01 4.392 60.3007 5.162 60.1793 6.702C60.1793 6.77667 60.2213 6.814 60.3053 6.814H64.0713C64.146 6.814 64.1833 6.77667 64.1833 6.702C64.1273 5.162 63.502 4.392 62.3073 4.392ZM62.6013 11.14C61.4533 11.14 60.5807 10.8273 59.9833 10.202C59.386 9.56733 59.0873 8.62 59.0873 7.36C59.0873 6.06267 59.372 5.11067 59.9413 4.504C60.52 3.888 61.3087 3.58 62.3073 3.58C64.146 3.58 65.1213 4.66733 65.2333 6.842C65.2427 7.066 65.1633 7.25733 64.9953 7.416C64.8367 7.56533 64.6453 7.64 64.4213 7.64H60.2773C60.2027 7.64 60.1653 7.682 60.1653 7.766C60.2493 9.474 61.094 10.328 62.6993 10.328C63.2313 10.328 63.7773 10.23 64.3373 10.034C64.44 9.99667 64.538 10.0107 64.6313 10.076C64.7247 10.132 64.7713 10.216 64.7713 10.328C64.7713 10.6453 64.6267 10.8413 64.3373 10.916C63.74 11.0653 63.1613 11.14 62.6013 11.14Z" fill="#0A22F5"/>
</svg>
