<svg width="22" height="22" viewBox="0 0 22 22" fill="none" xmlns="http://www.w3.org/2000/svg">
<path d="M11 11L19.25 2.75" stroke="#0A22F5" stroke-width="2" stroke-linecap="round" stroke-linejoin="round"/>
<path d="M16.8336 5.16638C15.3722 3.70786 13.4166 2.85097 11.3537 2.76525C9.29079 2.67952 7.27084 3.37119 5.69346 4.70343C4.11609 6.03567 3.0962 7.91142 2.83556 9.9596C2.57493 12.0078 3.09253 14.0792 4.28598 15.764C5.47943 17.4488 7.26178 18.6244 9.28042 19.058C11.2991 19.4917 13.4069 19.1519 15.1871 18.1059C16.9672 17.0598 18.2898 15.3838 18.8934 13.4093C19.4969 11.4347 19.3374 9.30562 18.4463 7.44309" stroke="#0A22F5" stroke-width="2" stroke-linecap="round" stroke-linejoin="round"/>
<path d="M13.9168 8.08318C13.2349 7.40125 12.3355 6.97983 11.3751 6.89217C10.4146 6.80452 9.45383 7.05617 8.65967 7.60338C7.86552 8.1506 7.28822 8.95879 7.02811 9.88748C6.76799 10.8162 6.84151 11.8066 7.23589 12.6868C7.63026 13.5669 8.32056 14.281 9.1868 14.7049C10.053 15.1289 11.0405 15.236 11.9774 15.0075C12.9144 14.779 13.7417 14.2294 14.3155 13.4542C14.8893 12.6791 15.1734 11.7274 15.1183 10.7645" stroke="#0A22F5" stroke-width="2" stroke-linecap="round" stroke-linejoin="round"/>
</svg>
