<svg width="91" height="22" viewBox="0 0 91 22" fill="none" xmlns="http://www.w3.org/2000/svg">
<path d="M11 11L19.25 2.75" stroke="white" stroke-width="2" stroke-linecap="round" stroke-linejoin="round"/>
<path d="M16.8336 5.16638C15.3722 3.70786 13.4166 2.85097 11.3537 2.76525C9.29079 2.67952 7.27084 3.37119 5.69346 4.70343C4.11609 6.03567 3.0962 7.91142 2.83556 9.9596C2.57493 12.0078 3.09253 14.0792 4.28598 15.764C5.47943 17.4488 7.26178 18.6244 9.28042 19.058C11.2991 19.4917 13.4069 19.1519 15.1871 18.1059C16.9672 17.0598 18.2898 15.3838 18.8934 13.4093C19.4969 11.4347 19.3374 9.30562 18.4463 7.44309" stroke="white" stroke-width="2" stroke-linecap="round" stroke-linejoin="round"/>
<path d="M13.9168 8.08318C13.2349 7.40125 12.3355 6.97983 11.3751 6.89217C10.4146 6.80452 9.45383 7.05617 8.65967 7.60338C7.86552 8.1506 7.28822 8.95879 7.02811 9.88748C6.76799 10.8162 6.84151 11.8066 7.23589 12.6868C7.63026 13.5669 8.32056 14.281 9.1868 14.7049C10.053 15.1289 11.0405 15.236 11.9774 15.0075C12.9144 14.779 13.7417 14.2294 14.3155 13.4542C14.8893 12.6791 15.1734 11.7274 15.1183 10.7645" stroke="white" stroke-width="2" stroke-linecap="round" stroke-linejoin="round"/>
<path d="M23.974 15.846C23.8713 15.9487 23.7453 16 23.596 16C23.4467 16 23.316 15.9487 23.204 15.846C23.1013 15.7433 23.05 15.6173 23.05 15.468V9.238C23.05 9.098 23.1013 8.97667 23.204 8.874C23.3067 8.77133 23.428 8.72 23.568 8.72C23.708 8.72 23.8293 8.77133 23.932 8.874C24.0347 8.97667 24.086 9.098 24.086 9.238L24.1 9.7C24.1 9.70933 24.1047 9.714 24.114 9.714C24.1327 9.714 24.142 9.70467 24.142 9.686C24.674 8.94867 25.3087 8.58 26.046 8.58C26.494 8.58 26.8533 8.678 27.124 8.874C27.404 9.07 27.6327 9.39667 27.81 9.854C27.81 9.87267 27.8147 9.882 27.824 9.882C27.8427 9.882 27.852 9.87267 27.852 9.854C28.3747 9.00467 29.056 8.58 29.896 8.58C30.6427 8.58 31.1793 8.79467 31.506 9.224C31.842 9.65333 32.01 10.372 32.01 11.38V15.468C32.01 15.6173 31.9587 15.7433 31.856 15.846C31.7627 15.9487 31.6413 16 31.492 16C31.3427 16 31.2167 15.9487 31.114 15.846C31.0113 15.7433 30.96 15.6173 30.96 15.468V11.66C30.96 10.792 30.8573 10.204 30.652 9.896C30.456 9.57867 30.106 9.42 29.602 9.42C29.2567 9.42 28.916 9.60667 28.58 9.98C28.244 10.344 28.076 10.722 28.076 11.114V15.468C28.076 15.6173 28.0247 15.7433 27.922 15.846C27.8193 15.9487 27.6933 16 27.544 16C27.3947 16 27.2687 15.9487 27.166 15.846C27.0633 15.7433 27.012 15.6173 27.012 15.468V11.66C27.012 10.792 26.9093 10.204 26.704 9.896C26.508 9.57867 26.1627 9.42 25.668 9.42C25.3227 9.42 24.9773 9.60667 24.632 9.98C24.296 10.344 24.128 10.722 24.128 11.114V15.468C24.128 15.6173 24.0767 15.7433 23.974 15.846ZM36.7722 9.392C35.4749 9.392 34.7655 10.162 34.6442 11.702C34.6442 11.7767 34.6862 11.814 34.7702 11.814H38.5362C38.6109 11.814 38.6482 11.7767 38.6482 11.702C38.5922 10.162 37.9669 9.392 36.7722 9.392ZM37.0662 16.14C35.9182 16.14 35.0455 15.8273 34.4482 15.202C33.8509 14.5673 33.5522 13.62 33.5522 12.36C33.5522 11.0627 33.8369 10.1107 34.4062 9.504C34.9849 8.888 35.7735 8.58 36.7722 8.58C38.6109 8.58 39.5862 9.66733 39.6982 11.842C39.7075 12.066 39.6282 12.2573 39.4602 12.416C39.3015 12.5653 39.1102 12.64 38.8862 12.64H34.7422C34.6675 12.64 34.6302 12.682 34.6302 12.766C34.7142 14.474 35.5589 15.328 37.1642 15.328C37.6962 15.328 38.2422 15.23 38.8022 15.034C38.9049 14.9967 39.0029 15.0107 39.0962 15.076C39.1895 15.132 39.2362 15.216 39.2362 15.328C39.2362 15.6453 39.0915 15.8413 38.8022 15.916C38.2049 16.0653 37.6262 16.14 37.0662 16.14ZM44.2647 9.42C42.8647 9.42 42.1647 10.4 42.1647 12.36C42.1647 13.3307 42.3467 14.0633 42.7107 14.558C43.084 15.0527 43.602 15.3 44.2647 15.3C44.806 15.3 45.2914 15.1133 45.7207 14.74C46.15 14.3573 46.3647 13.9233 46.3647 13.438V11.282C46.3647 10.806 46.15 10.3767 45.7207 9.994C45.3007 9.61133 44.8154 9.42 44.2647 9.42ZM44.0407 16.14C43.1727 16.14 42.4634 15.804 41.9127 15.132C41.3714 14.4507 41.1007 13.5267 41.1007 12.36C41.1007 11.156 41.362 10.2273 41.8847 9.574C42.4167 8.91133 43.1354 8.58 44.0407 8.58C44.9554 8.58 45.716 8.93933 46.3227 9.658C46.332 9.66733 46.3414 9.672 46.3507 9.672C46.36 9.672 46.3647 9.66733 46.3647 9.658V6.032C46.3647 5.88267 46.416 5.75667 46.5187 5.654C46.6307 5.55133 46.7614 5.5 46.9107 5.5C47.06 5.5 47.186 5.55133 47.2887 5.654C47.3914 5.75667 47.4427 5.88267 47.4427 6.032V15.496C47.4427 15.636 47.3914 15.7573 47.2887 15.86C47.1954 15.9533 47.0787 16 46.9387 16C46.7987 16 46.6774 15.9533 46.5747 15.86C46.472 15.7573 46.4207 15.636 46.4207 15.496V14.978C46.4207 14.9687 46.416 14.964 46.4067 14.964C46.3974 14.964 46.388 14.9687 46.3787 14.978C45.7534 15.7527 44.974 16.14 44.0407 16.14ZM51.1265 15.832C51.0238 15.944 50.8931 16 50.7345 16C50.5758 16 50.4405 15.944 50.3285 15.832C50.2258 15.72 50.1745 15.5893 50.1745 15.44V9.28C50.1745 9.13067 50.2258 9 50.3285 8.888C50.4405 8.776 50.5758 8.72 50.7345 8.72C50.8931 8.72 51.0238 8.776 51.1265 8.888C51.2385 9 51.2945 9.13067 51.2945 9.28V15.44C51.2945 15.5893 51.2385 15.72 51.1265 15.832ZM51.1265 6.844C51.0238 6.94667 50.8931 6.998 50.7345 6.998C50.5758 6.998 50.4405 6.94667 50.3285 6.844C50.2258 6.732 50.1745 6.59667 50.1745 6.438V6.06C50.1745 5.91067 50.2258 5.78 50.3285 5.668C50.4405 5.556 50.5758 5.5 50.7345 5.5C50.8931 5.5 51.0238 5.556 51.1265 5.668C51.2385 5.78 51.2945 5.91067 51.2945 6.06V6.438C51.2945 6.59667 51.2385 6.732 51.1265 6.844ZM56.8884 16.14C55.7871 16.14 54.9378 15.8227 54.3404 15.188C53.7524 14.544 53.4584 13.6013 53.4584 12.36C53.4584 11.128 53.7431 10.19 54.3124 9.546C54.8911 8.902 55.7031 8.58 56.7484 8.58C57.2338 8.58 57.7471 8.63133 58.2884 8.734C58.4191 8.762 58.5264 8.832 58.6104 8.944C58.7038 9.04667 58.7504 9.168 58.7504 9.308C58.7504 9.42 58.6991 9.50867 58.5964 9.574C58.5031 9.63933 58.4004 9.658 58.2884 9.63C57.8124 9.50867 57.3224 9.448 56.8184 9.448C55.3251 9.448 54.5784 10.4187 54.5784 12.36C54.5784 13.368 54.7744 14.1053 55.1664 14.572C55.5584 15.0387 56.1558 15.272 56.9584 15.272C57.4811 15.272 57.9571 15.202 58.3864 15.062C58.4891 15.0247 58.5871 15.0387 58.6804 15.104C58.7738 15.1693 58.8204 15.258 58.8204 15.37C58.8204 15.51 58.7784 15.636 58.6944 15.748C58.6104 15.86 58.4984 15.9347 58.3584 15.972C57.9198 16.084 57.4298 16.14 56.8884 16.14ZM65.9347 12.36C65.9347 10.4 65.1881 9.42 63.6947 9.42C62.2014 9.42 61.4547 10.4 61.4547 12.36C61.4547 14.32 62.2014 15.3 63.6947 15.3C65.1881 15.3 65.9347 14.32 65.9347 12.36ZM66.1447 15.146C65.5567 15.8087 64.7401 16.14 63.6947 16.14C62.6494 16.14 61.8327 15.8087 61.2447 15.146C60.6567 14.4833 60.3627 13.5547 60.3627 12.36C60.3627 11.1653 60.6567 10.2367 61.2447 9.574C61.8327 8.91133 62.6494 8.58 63.6947 8.58C64.7401 8.58 65.5567 8.91133 66.1447 9.574C66.7327 10.2367 67.0267 11.1653 67.0267 12.36C67.0267 13.5547 66.7327 14.4833 66.1447 15.146ZM71.4988 9.392C70.2014 9.392 69.4921 10.162 69.3708 11.702C69.3708 11.7767 69.4128 11.814 69.4968 11.814H73.2628C73.3374 11.814 73.3748 11.7767 73.3748 11.702C73.3188 10.162 72.6934 9.392 71.4988 9.392ZM71.7928 16.14C70.6448 16.14 69.7721 15.8273 69.1748 15.202C68.5774 14.5673 68.2788 13.62 68.2788 12.36C68.2788 11.0627 68.5634 10.1107 69.1328 9.504C69.7114 8.888 70.5001 8.58 71.4988 8.58C73.3374 8.58 74.3128 9.66733 74.4248 11.842C74.4341 12.066 74.3548 12.2573 74.1868 12.416C74.0281 12.5653 73.8368 12.64 73.6128 12.64H69.4688C69.3941 12.64 69.3568 12.682 69.3568 12.766C69.4408 14.474 70.2854 15.328 71.8908 15.328C72.4228 15.328 72.9688 15.23 73.5288 15.034C73.6314 14.9967 73.7294 15.0107 73.8228 15.076C73.9161 15.132 73.9628 15.216 73.9628 15.328C73.9628 15.6453 73.8181 15.8413 73.5288 15.916C72.9314 16.0653 72.3528 16.14 71.7928 16.14ZM77.7291 15.832L75.2791 9.252C75.2324 9.12133 75.2464 9 75.3211 8.888C75.4051 8.776 75.5171 8.72 75.6571 8.72C75.8251 8.72 75.9744 8.77133 76.1051 8.874C76.2451 8.96733 76.3431 9.09333 76.3991 9.252L78.3171 14.698C78.3171 14.7073 78.3217 14.712 78.3311 14.712C78.3497 14.712 78.3591 14.7073 78.3591 14.698L80.4731 9.224C80.5291 9.07467 80.6224 8.95333 80.7531 8.86C80.8931 8.76667 81.0471 8.72 81.2151 8.72C81.3457 8.72 81.4437 8.776 81.5091 8.888C81.5837 8.99067 81.5977 9.10267 81.5511 9.224L77.7011 18.576C77.6357 18.7253 77.5331 18.8467 77.3931 18.94C77.2624 19.0333 77.1131 19.08 76.9451 19.08C76.8144 19.08 76.7164 19.024 76.6511 18.912C76.5857 18.8093 76.5764 18.6973 76.6231 18.576L77.7291 16.056C77.7571 15.9813 77.7571 15.9067 77.7291 15.832ZM85.4441 9.392C84.1467 9.392 83.4374 10.162 83.3161 11.702C83.3161 11.7767 83.3581 11.814 83.4421 11.814H87.2081C87.2827 11.814 87.3201 11.7767 87.3201 11.702C87.2641 10.162 86.6387 9.392 85.4441 9.392ZM85.7381 16.14C84.5901 16.14 83.7174 15.8273 83.1201 15.202C82.5227 14.5673 82.2241 13.62 82.2241 12.36C82.2241 11.0627 82.5087 10.1107 83.0781 9.504C83.6567 8.888 84.4454 8.58 85.4441 8.58C87.2827 8.58 88.2581 9.66733 88.3701 11.842C88.3794 12.066 88.3001 12.2573 88.1321 12.416C87.9734 12.5653 87.7821 12.64 87.5581 12.64H83.4141C83.3394 12.64 83.3021 12.682 83.3021 12.766C83.3861 14.474 84.2307 15.328 85.8361 15.328C86.3681 15.328 86.9141 15.23 87.4741 15.034C87.5767 14.9967 87.6747 15.0107 87.7681 15.076C87.8614 15.132 87.9081 15.216 87.9081 15.328C87.9081 15.6453 87.7634 15.8413 87.4741 15.916C86.8767 16.0653 86.2981 16.14 85.7381 16.14Z" fill="white"/>
</svg>
